# xmcd
#
# Track frame offsets: 
#        150
#        18570
#        35712
#        52989
#        71893
#        90678
#        107721
#        124442
#        141616
#        159190
#        178040
#        192901
#        209443
#        230765
#        244313
#        261324
#        273869
#        288928
#        306777
#        324834
#        343110
#
# Disc length: 4791 seconds
#
# Revision: 3
# Processed by: cddbd v1.5.2PL0 Copyright (c) Steve Scherf et al.
# Submitted via: ExactAudioCopy v1.0b3
#
DISCID=4712b515
DTITLE=Various Artist - Nescafe Gold Ballads 9
DYEAR=2003
DGENRE=Ballads
TTITLE0=Enrique Iglesias - Love to see you cry
TTITLE1=Britney Spears - I'm not a girl, not yet a woman
TTITLE2=Bosson - I believe
TTITLE3=Sarah Connor - From Sarah with love
TTITLE4=Five - Closer to you
TTITLE5=Victoria Beckham - A mind of its own
TTITLE6=Westlife - Soledad
TTITLE7=Caprise - Once around the sun
TTITLE8=Bastian Ragas - You complete me
TTITLE9=E-Type - Star
TTITLE10=Addis Black Window - Goes around, comes around
TTITLE11=Lou Bega - Lonely
TTITLE12=Antique - Why (Milan)
TTITLE13=Amanda - Everybody doesn't
TTITLE14=Marc Antony - Tragedy
TTITLE15=Robbie Williams and Nickole Kidman - Somethin' stupid
TTITLE16=Blue - Girl i'll never understand
TTITLE17=Darren Hause - Instable
TTITLE18=Depeche Mode - Free love
TTITLE19=Rafhorton - Hotel California
TTITLE20=Oleg Zlobin - Lady
EXTD=
EXTT0=
EXTT1=
EXTT2=
EXTT3=
EXTT4=
EXTT5=
EXTT6=
EXTT7=
EXTT8=
EXTT9=
EXTT10=
EXTT11=
EXTT12=
EXTT13=
EXTT14=
EXTT15=
EXTT16=
EXTT17=
EXTT18=
EXTT19=
EXTT20=
PLAYORDER=
